<svg width="120" height="121" viewBox="0 0 120 121" fill="none" xmlns="http://www.w3.org/2000/svg">
<g clip-path="url(#clip0_9883_438561)">
<path d="M120 0.917969H0V120.918H120V0.917969Z" fill="#12164F"/>
<path d="M22.3359 58.2099V30.6543H27.207V40.961H27.4093C27.6604 40.4587 28.0126 39.9232 28.4659 39.3532C28.9193 38.7832 29.5382 38.2954 30.3226 37.8865C31.107 37.4787 32.1048 37.2743 33.3159 37.2743C34.9126 37.2743 36.3548 37.6821 37.6415 38.4987C38.9282 39.3154 39.9515 40.5121 40.7093 42.091C41.467 43.6699 41.8459 45.6076 41.8459 47.9032C41.8459 50.1987 41.4737 52.101 40.7293 53.6887C39.9848 55.2765 38.9715 56.4876 37.6882 57.3221C36.4048 58.1565 34.9526 58.5732 33.3293 58.5732C32.1448 58.5732 31.1626 58.3754 30.3826 57.981C29.6026 57.5865 28.977 57.1087 28.5059 56.5476C28.0348 55.9876 27.6693 55.4554 27.4093 54.9532H27.127V58.2087H22.337L22.3359 58.2099ZM27.1126 47.8765C27.1126 49.8765 27.5337 51.4943 28.377 52.7265C29.2204 53.9599 30.417 54.5765 31.9693 54.5765C33.5215 54.5765 34.7948 53.9443 35.6293 52.6799C36.4637 51.4154 36.8804 49.8143 36.8804 47.8765C36.8804 45.9387 36.4682 44.3643 35.6426 43.1265C34.817 41.8887 33.5926 41.2699 31.9693 41.2699C30.3459 41.2699 29.197 41.8687 28.3637 43.0665C27.5304 44.2643 27.1126 45.8676 27.1126 47.8765Z" fill="#1BB19B"/>
<path d="M46.5882 66.2555C45.8793 66.2555 45.2604 66.1921 44.7315 66.0666C44.2026 65.941 43.7982 65.8199 43.5204 65.7032L44.6504 61.801C45.7182 62.1055 46.6126 62.1599 47.3349 61.9621C48.0571 61.7644 48.6471 61.0966 49.1037 59.9577L49.5882 58.6388L42.0938 37.541H47.2604L52.0237 53.1488H52.2393L57.016 37.541H62.196L53.8537 60.8988C53.2793 62.5221 52.396 63.821 51.2026 64.7943C50.0093 65.7677 48.4715 66.2544 46.5871 66.2544L46.5882 66.2555Z" fill="#1BB19B"/>
<path d="M75.4961 37.5437V41.3115H71.4194V51.9949C71.4194 52.9726 71.635 53.616 72.065 53.926C72.495 54.236 73.0161 54.3904 73.6261 54.3904C73.9305 54.3904 74.2116 54.3682 74.4672 54.3226C74.7227 54.2782 74.9183 54.2371 75.0527 54.2015L75.8739 58.0093C75.6139 58.0993 75.2439 58.1982 74.7639 58.3049C74.2839 58.4126 73.6983 58.4749 73.0083 58.4937C71.1783 58.5471 69.6427 58.0993 68.4005 57.1482C67.1583 56.1971 66.5416 54.7493 66.5505 52.8026V41.3126H63.6172V37.5449H66.5505V32.5938H71.4216V37.5449H75.4983L75.4961 37.5437Z" fill="#1BB19B"/>
<path d="M87.069 58.6126C84.9968 58.6126 83.209 58.1782 81.7068 57.307C80.2046 56.437 79.049 55.2082 78.2424 53.6204C77.4357 52.0326 77.0312 50.1582 77.0312 47.9959C77.0312 45.8337 77.4346 44.0026 78.2424 42.3915C79.0501 40.7815 80.1868 39.5259 81.6535 38.6237C83.1201 37.7215 84.8401 37.2715 86.8135 37.2715C88.509 37.2715 90.0735 37.637 91.509 38.3682C92.9446 39.0993 94.0946 40.2337 94.9601 41.7726C95.8257 43.3115 96.259 45.2915 96.259 47.7126V49.2059H81.8624C81.889 50.9726 82.3801 52.3504 83.3357 53.337C84.2912 54.3237 85.5579 54.817 87.1368 54.817C88.1868 54.817 89.0946 54.5904 89.8612 54.137C90.6279 53.6837 91.1779 53.0226 91.509 52.1526L96.0568 52.6637C95.6257 54.4582 94.6235 55.897 93.0501 56.9826C91.4757 58.0682 89.4824 58.6104 87.069 58.6104V58.6126ZM81.8757 45.9248H91.5901C91.5813 44.517 91.1435 43.3548 90.2779 42.4404C89.4124 41.5259 88.2801 41.0682 86.8801 41.0682C85.4801 41.0682 84.2479 41.5482 83.3412 42.5082C82.4346 43.4682 81.9468 44.607 81.8746 45.9259L81.8757 45.9248Z" fill="#1BB19B"/>
<path d="M26.9883 60.9883V88.5438H22.1172V60.9883H26.9883Z" fill="#FDFEFE"/>
<path d="M39.5925 88.9466C37.5202 88.9466 35.7336 88.511 34.2302 87.641C32.728 86.771 31.5725 85.5421 30.7658 83.9544C29.9591 82.3666 29.5547 80.4921 29.5547 78.3299C29.5547 76.1677 29.958 74.3366 30.7658 72.7255C31.5736 71.1155 32.7102 69.8599 34.1769 68.9577C35.6436 68.0555 37.3636 67.6055 39.3369 67.6055C41.0325 67.6055 42.598 67.971 44.0325 68.7021C45.468 69.4332 46.618 70.5677 47.4836 72.1066C48.3491 73.6455 48.7825 75.6255 48.7825 78.0466V79.5399H34.3858C34.4125 81.3077 34.9036 82.6844 35.8591 83.671C36.8147 84.6577 38.0814 85.151 39.6602 85.151C40.7102 85.151 41.618 84.9244 42.3847 84.471C43.1514 84.0177 43.7014 83.3566 44.0325 82.4866L48.5802 82.9977C48.1491 84.7921 47.1469 86.231 45.5736 87.3166C43.9991 88.4021 42.0058 88.9444 39.5925 88.9444V88.9466ZM34.3991 76.2588H44.1136C44.1047 74.851 43.6669 73.6888 42.8014 72.7744C41.9358 71.8599 40.8036 71.4021 39.4036 71.4021C38.0036 71.4021 36.7714 71.8821 35.8647 72.8421C34.9591 73.8021 34.4702 74.941 34.398 76.2599L34.3991 76.2588Z" fill="#FDFEFE"/>
<path d="M57.1734 88.9599C55.2 88.9599 53.5545 88.431 52.2356 87.3721C50.9167 86.3144 50.2578 84.771 50.2578 82.7432C50.2578 81.191 50.6323 79.9877 51.3811 79.131C52.13 78.2744 53.1034 77.651 54.3011 77.261C55.4989 76.871 56.7656 76.6044 58.1023 76.4599C59.9234 76.2632 61.23 76.0788 62.0245 75.9088C62.8178 75.7388 63.2156 75.3032 63.2156 74.6032V74.5221C63.2156 73.5088 62.9145 72.7244 62.3145 72.1677C61.7134 71.6121 60.8478 71.3332 59.7178 71.3332C58.5245 71.3332 57.58 71.5932 56.8856 72.1132C56.19 72.6332 55.7223 73.2477 55.48 73.9566L50.9323 73.311C51.47 71.4277 52.5223 70.0055 54.0878 69.0455C55.6534 68.0855 57.5211 67.6055 59.6923 67.6055C60.6789 67.6055 61.6656 67.7221 62.6523 67.9555C63.6389 68.1888 64.5423 68.5744 65.3634 69.1121C66.1845 69.6499 66.8434 70.3766 67.3411 71.2921C67.8389 72.2077 68.0878 73.3466 68.0878 74.7099V88.541H63.4056V85.7021H63.2445C62.8045 86.5721 62.0889 87.3321 61.0989 87.9832C60.1078 88.6332 58.8 88.9588 57.1767 88.9588L57.1734 88.9599ZM58.4378 85.381C59.9089 85.381 61.0745 84.9599 61.9356 84.1166C62.7967 83.2732 63.2267 82.2777 63.2267 81.1299V78.6944C63.02 78.8644 62.6411 79.0155 62.09 79.1455C61.5389 79.2755 60.9534 79.3855 60.3345 79.4755C59.7156 79.5655 59.1911 79.6421 58.76 79.7044C57.6745 79.8566 56.7689 80.1555 56.0423 80.5988C55.3156 81.0421 54.9523 81.731 54.9523 82.6644C54.9523 83.5977 55.28 84.2388 55.9345 84.6966C56.5889 85.1544 57.4234 85.3832 58.4367 85.3832L58.4378 85.381Z" fill="#FDFEFE"/>
<path d="M71.3281 88.5434V67.8767H76.0503V71.3212H76.2659C76.6426 70.119 77.2903 69.1956 78.2103 68.549C79.1292 67.9034 80.1815 67.5801 81.3659 67.5801C81.6348 67.5801 81.9381 67.5912 82.2737 67.6134C82.6103 67.6356 82.8903 67.669 83.1148 67.7145V72.1945C82.9081 72.1223 82.5837 72.0579 82.1392 71.999C81.6948 71.9412 81.267 71.9112 80.8548 71.9112C79.5181 71.9112 78.4081 72.3301 77.5248 73.169C76.6415 74.0079 76.1992 75.0823 76.1992 76.3912V88.5412H71.3281V88.5434Z" fill="#FDFEFE"/>
<path d="M89.5664 76.433V88.5419H84.6953V67.8752H89.3509V71.3874H89.5931C90.0686 70.2396 90.8286 69.3219 91.8742 68.6363C92.9186 67.9496 94.2131 67.6074 95.7564 67.6074C97.8909 67.6074 99.6064 68.2852 100.903 69.6396C102.2 70.9941 102.843 72.9096 102.834 75.3852V88.5441H97.9631V76.1385C97.9631 74.7574 97.6064 73.6763 96.8931 72.8963C96.1798 72.1163 95.1953 71.7252 93.9398 71.7252C92.6842 71.7252 91.6075 72.1352 90.7909 72.9563C89.9742 73.7774 89.5664 74.9363 89.5664 76.4341V76.433Z" fill="#FDFEFE"/>
</g>
<defs>
<clipPath id="clip0_9883_438561">
<rect width="120" height="120" fill="white" transform="translate(0 0.917969)"/>
</clipPath>
</defs>
</svg>
